<svg width="356px" height="103px" viewBox="1026 922 356 103" version="1.1" xmlns="http://www.w3.org/2000/svg" xmlns:xlink="http://www.w3.org/1999/xlink">
    <!-- Generator: Sketch 39.1 (31720) - http://www.bohemiancoding.com/sketch -->
    <desc>Created with Sketch.</desc>
    <defs></defs>
    <g id="Bridge2" stroke="none" stroke-width="1" fill="none" fill-rule="evenodd" transform="translate(1028.000000, 922.000000)">
        <rect id="Rectangle-5" fill="#EF6262" transform="translate(176.500000, 69.715596) scale(1, -1) translate(-176.500000, -69.715596) " x="0" y="67.3761468" width="353" height="4.67889908"></rect>
        <g id="Right" transform="translate(142.082500, 0.000000)">
            <g id="Bridge-Wires" transform="translate(150.710000, 39.422018) scale(-1, 1) translate(-150.710000, -39.422018) translate(100.210000, 8.422018)" stroke="#EF6262">
                <path d="M0.784459973,60.9011876 L100.610452,0.254012541" id="Path-2"></path>
                <path d="M8.42645389,61.2343743 L100.839357,2.22211943" id="Path-2"></path>
                <path d="M16.4109731,61.1563323 L100.828577,4.2194701" id="Path-2"></path>
                <path d="M26.498817,59.7294951 L100.864429,6.34469588" id="Path-2"></path>
                <path d="M34.4166775,60.0727112 L100.624492,8.53213118" id="Path-2"></path>
                <path d="M42.5069678,59.6505046 L100.626471,10.7723835" id="Path-2"></path>
                <path d="M49.6566737,59.8938031 L100.639392,13.0701575" id="Path-2"></path>
                <path d="M56.2961836,60.3779187 L100.673972,15.6001812" id="Path-2"></path>
                <path d="M62.5272246,60.3776436 L100.66049,18.1607552" id="Path-2"></path>
                <path d="M69.1788369,59.6289648 L100.841737,20.4857003" id="Path-2"></path>
                <path d="M74.2879224,60.6789863 L100.841737,23.2930398" id="Path-2"></path>
                <path d="M74.2879224,60.6789863 L100.841737,23.2930398" id="Path-2"></path>
                <path d="M80.9342521,59.6189922 L100.859427,26.3527416" id="Path-2"></path>
                <path d="M86.9141898,59.6008336 L100.726701,30.2528557" id="Path-2"></path>
                <path d="M93.0029982,59.0395051 L100.815695,33.6986537" id="Path-2"></path>
            </g>
            <polygon id="Rectangle-6" fill="#EF6262" points="96.1944111 6.54180126 100.605 0 105.085466 6.54180126 106.7825 102 94.4275 102"></polygon>
            <g id="Bridge-Wires" transform="translate(0.000000, 8.422018)" stroke="#EF6262">
                <path d="M0.784459973,60.9011876 L100.610452,0.254012541" id="Path-2"></path>
                <path d="M8.42645389,61.2343743 L100.839357,2.22211943" id="Path-2"></path>
                <path d="M16.4109731,61.1563323 L100.828577,4.2194701" id="Path-2"></path>
                <path d="M26.498817,59.7294951 L100.864429,6.34469588" id="Path-2"></path>
                <path d="M34.4166775,60.0727112 L100.624492,8.53213118" id="Path-2"></path>
                <path d="M42.5069678,59.6505046 L100.626471,10.7723835" id="Path-2"></path>
                <path d="M49.6566737,59.8938031 L100.639392,13.0701575" id="Path-2"></path>
                <path d="M56.2961836,60.3779187 L100.673972,15.6001812" id="Path-2"></path>
                <path d="M62.5272246,60.3776436 L100.66049,18.1607552" id="Path-2"></path>
                <path d="M69.1788369,59.6289648 L100.841737,20.4857003" id="Path-2"></path>
                <path d="M74.2879224,60.6789863 L100.841737,23.2930398" id="Path-2"></path>
                <path d="M74.2879224,60.6789863 L100.841737,23.2930398" id="Path-2"></path>
                <path d="M80.9342521,59.6189922 L100.859427,26.3527416" id="Path-2"></path>
                <path d="M86.9141898,59.6008336 L100.726701,30.2528557" id="Path-2"></path>
                <path d="M93.0029982,59.0395051 L100.815695,33.6986537" id="Path-2"></path>
            </g>
        </g>
        <g id="Left" transform="translate(12.355000, 0.000000)">
            <g id="Bridge-Wires" transform="translate(0.000000, 8.422018)" stroke="#EF6262">
                <path d="M0.784459973,60.9011876 L100.610452,0.254012541" id="Path-2"></path>
                <path d="M8.42645389,61.2343743 L100.839357,2.22211943" id="Path-2"></path>
                <path d="M16.4109731,61.1563323 L100.828577,4.2194701" id="Path-2"></path>
                <path d="M26.498817,59.7294951 L100.864429,6.34469588" id="Path-2"></path>
                <path d="M34.4166775,60.0727112 L100.624492,8.53213118" id="Path-2"></path>
                <path d="M42.5069678,59.6505046 L100.626471,10.7723835" id="Path-2"></path>
                <path d="M49.6566737,59.8938031 L100.639392,13.0701575" id="Path-2"></path>
                <path d="M56.2961836,60.3779187 L100.673972,15.6001812" id="Path-2"></path>
                <path d="M62.5272246,60.3776436 L100.66049,18.1607552" id="Path-2"></path>
                <path d="M69.1788369,59.6289648 L100.841737,20.4857003" id="Path-2"></path>
                <path d="M74.2879224,60.6789863 L100.841737,23.2930398" id="Path-2"></path>
                <path d="M74.2879224,60.6789863 L100.841737,23.2930398" id="Path-2"></path>
                <path d="M80.9342521,59.6189922 L100.859427,26.3527416" id="Path-2"></path>
                <path d="M86.9141898,59.6008336 L100.726701,30.2528557" id="Path-2"></path>
                <path d="M93.0029982,59.0395051 L100.815695,33.6986537" id="Path-2"></path>
            </g>
            <polygon id="Rectangle-6" fill="#EF6262" points="96.1944111 6.54180126 100.605 0 105.085466 6.54180126 106.7825 102 94.4275 102"></polygon>
            <g id="Bridge-Wires" transform="translate(151.592500, 39.422018) scale(-1, 1) translate(-151.592500, -39.422018) translate(101.092500, 8.422018)" stroke="#EF6262">
                <path d="M0.784459973,60.9011876 L100.610452,0.254012541" id="Path-2"></path>
                <path d="M8.42645389,61.2343743 L100.839357,2.22211943" id="Path-2"></path>
                <path d="M16.4109731,61.1563323 L100.828577,4.2194701" id="Path-2"></path>
                <path d="M26.498817,59.7294951 L100.864429,6.34469588" id="Path-2"></path>
                <path d="M34.4166775,60.0727112 L100.624492,8.53213118" id="Path-2"></path>
                <path d="M42.5069678,59.6505046 L100.626471,10.7723835" id="Path-2"></path>
                <path d="M49.6566737,59.8938031 L100.639392,13.0701575" id="Path-2"></path>
                <path d="M56.2961836,60.3779187 L100.673972,15.6001812" id="Path-2"></path>
                <path d="M62.5272246,60.3776436 L100.66049,18.1607552" id="Path-2"></path>
                <path d="M69.1788369,59.6289648 L100.841737,20.4857003" id="Path-2"></path>
                <path d="M74.2879224,60.6789863 L100.841737,23.2930398" id="Path-2"></path>
                <path d="M74.2879224,60.6789863 L100.841737,23.2930398" id="Path-2"></path>
                <path d="M80.9342521,59.6189922 L100.859427,26.3527416" id="Path-2"></path>
                <path d="M86.9141898,59.6008336 L100.726701,30.2528557" id="Path-2"></path>
                <path d="M93.0029982,59.0395051 L100.815695,33.6986537" id="Path-2"></path>
            </g>
        </g>
        <g id="River" transform="translate(0.000000, 95.000000)" stroke="#EF6262" stroke-width="3">
            <path d="M-5.19101789e-23,0 C-5.19101789e-23,0 0.171186075,6.04781999 6.88353785,6.04782009 C13.5958896,6.04782019 13.7670755,0 13.7670755,0" id="Path-10"></path>
            <path d="M14.7083333,0 C14.7083333,0 14.8795194,6.04781999 21.5918712,6.04782009 C28.304223,6.04782019 28.4754088,0 28.4754088,0" id="Path-10"></path>
            <path d="M28.4361111,0 C28.4361111,0 28.6072972,6.04781999 35.319649,6.04782009 C42.0320007,6.04782019 42.2031866,0 42.2031866,0" id="Path-10"></path>
            <path d="M42.1638889,0 C42.1638889,0 42.335075,6.04781999 49.0474267,6.04782009 C55.7597785,6.04782019 55.9309644,0 55.9309644,0" id="Path-10"></path>
            <path d="M56.8722222,0 C56.8722222,0 57.0434083,6.04781999 63.7557601,6.04782009 C70.4681119,6.04782019 70.6392977,0 70.6392977,0" id="Path-10"></path>
            <path d="M70.6,0 C70.6,0 70.7711861,6.04781999 77.4835379,6.04782009 C84.1958896,6.04782019 84.3670755,0 84.3670755,0" id="Path-10"></path>
            <path d="M84.3277778,0 C84.3277778,0 84.4989639,6.04781999 91.2113156,6.04782009 C97.9236674,6.04782019 98.0948533,0 98.0948533,0" id="Path-10"></path>
            <path d="M127.491667,0 C127.491667,0 127.662853,6.04781999 134.375205,6.04782009 C141.087556,6.04782019 141.258742,0 141.258742,0" id="Path-10"></path>
            <path d="M142.2,0 C142.2,0 142.371186,6.04781999 149.083538,6.04782009 C155.79589,6.04782019 155.967076,0 155.967076,0" id="Path-10"></path>
            <path d="M155.927778,0 C155.927778,0 156.098964,6.04781999 162.811316,6.04782009 C169.523667,6.04782019 169.694853,0 169.694853,0" id="Path-10"></path>
            <path d="M169.655556,0 C169.655556,0 169.826742,6.04781999 176.539093,6.04782009 C183.251445,6.04782019 183.422631,0 183.422631,0" id="Path-10"></path>
            <path d="M184.363889,0 C184.363889,0 184.535075,6.04781999 191.247427,6.04782009 C197.959779,6.04782019 198.130964,0 198.130964,0" id="Path-10"></path>
            <path d="M198.091667,0 C198.091667,0 198.262853,6.04781999 204.975205,6.04782009 C211.687556,6.04782019 211.858742,0 211.858742,0" id="Path-10"></path>
            <path d="M212.8,0 C212.8,0 212.971186,6.04781999 219.683538,6.04782009 C226.39589,6.04782019 226.567076,0 226.567076,0" id="Path-10"></path>
            <path d="M253.963889,0 C253.963889,0 254.135075,6.04781999 260.847427,6.04782009 C267.559779,6.04782019 267.730964,0 267.730964,0" id="Path-10"></path>
            <path d="M267.691667,0 C267.691667,0 267.862853,6.04781999 274.575205,6.04782009 C281.287556,6.04782019 281.458742,0 281.458742,0" id="Path-10"></path>
            <path d="M281.419444,0 C281.419444,0 281.590631,6.04781999 288.302982,6.04782009 C295.015334,6.04782019 295.18652,0 295.18652,0" id="Path-10"></path>
            <path d="M296.127778,0 C296.127778,0 296.298964,6.04781999 303.011316,6.04782009 C309.723667,6.04782019 309.894853,0 309.894853,0" id="Path-10"></path>
            <path d="M309.855556,0 C309.855556,0 310.026742,6.04781999 316.739093,6.04782009 C323.451445,6.04782019 323.622631,0 323.622631,0" id="Path-10"></path>
            <path d="M323.583333,0 C323.583333,0 323.754519,6.04781999 330.466871,6.04782009 C337.179223,6.04782019 337.350409,0 337.350409,0" id="Path-10"></path>
            <path d="M338.291667,0 C338.291667,0 338.462853,6.04781999 345.175205,6.04782009 C351.887556,6.04782019 352.058742,0 352.058742,0" id="Path-10"></path>
        </g>
    </g>
</svg>