<svg width="205px" height="96px" viewBox="342 930 205 96" version="1.1" xmlns="http://www.w3.org/2000/svg" xmlns:xlink="http://www.w3.org/1999/xlink">
    <!-- Generator: Sketch 39.1 (31720) - http://www.bohemiancoding.com/sketch -->
    <desc>Created with Sketch.</desc>
    <defs></defs>
    <g id="Bridge-1" stroke="none" stroke-width="1" fill="none" fill-rule="evenodd" transform="translate(344.000000, 930.000000)">
        <rect id="Rectangle-37" fill="#EF6262" x="0" y="48" width="201" height="36"></rect>
        <path d="M62.9230303,84.3466602 C62.9230303,84.3466602 59.1229902,54 37,54 C14.8770098,54 11.0769697,84.3466602 11.0769697,84.3466602 L62.9230303,84.3466602 Z" id="Oval-1" fill="#222B30"></path>
        <path d="M126.846061,84.3466602 C126.846061,84.3466602 123.046021,54 100.92303,54 C78.8000401,54 75,84.3466602 75,84.3466602 L126.846061,84.3466602 Z" id="Oval-1" fill="#222B30"></path>
        <path d="M191,84.3466602 C191,84.3466602 187.19996,54 165.07697,54 C142.953979,54 139.153939,84.3466602 139.153939,84.3466602 L191,84.3466602 Z" id="Oval-1" fill="#222B30"></path>
        <rect id="Rectangle-38" fill="#EF6262" transform="translate(100.500000, 42.000000) scale(1, -1) translate(-100.500000, -42.000000) " x="0" y="40" width="201" height="4"></rect>
        <rect id="Rectangle-39" fill="#EF6262" transform="translate(62.500000, 20.000000) scale(-1, 1) translate(-62.500000, -20.000000) " x="60" y="0" width="5" height="40"></rect>
        <g id="Flag" transform="translate(67.000000, 0.000000)">
            <rect id="Rectangle-40" fill="#EF6262" x="0" y="0" width="30" height="17"></rect>
            <rect id="Rectangle-41" fill="#222B30" x="2" y="2" width="11" height="7"></rect>
            <rect id="Rectangle-41" fill="#222B30" x="15" y="2" width="13" height="1"></rect>
            <rect id="Rectangle-41" fill="#222B30" x="15" y="6" width="13" height="1"></rect>
            <rect id="Rectangle-41" fill="#222B30" x="15" y="8" width="13" height="1"></rect>
            <rect id="Rectangle-41" fill="#222B30" x="2" y="10" width="26" height="1"></rect>
            <rect id="Rectangle-41" fill="#222B30" x="2" y="12" width="26" height="1"></rect>
            <rect id="Rectangle-41" fill="#222B30" x="2" y="14" width="26" height="1"></rect>
            <rect id="Rectangle-41" fill="#222B30" x="15" y="4" width="13" height="1"></rect>
        </g>
        <g id="River" transform="translate(0.000000, 88.000000)" stroke="#EF6262" stroke-width="3">
            <path d="M-5.29395592e-23,0 C-5.29395592e-23,0 0.1745807,6.04781999 7.0200386,6.04782009 C13.8654965,6.04782019 14.040077,0 14.040077,0" id="Path-10"></path>
            <path d="M15,0 C15,0 15.1745807,6.04781999 22.0200386,6.04782009 C28.8654965,6.04782019 29.040077,0 29.040077,0" id="Path-10"></path>
            <path d="M29,0 C29,0 29.1745807,6.04781999 36.0200386,6.04782009 C42.8654965,6.04782019 43.040077,0 43.040077,0" id="Path-10"></path>
            <path d="M43,0 C43,0 43.1745807,6.04781999 50.0200386,6.04782009 C56.8654965,6.04782019 57.040077,0 57.040077,0" id="Path-10"></path>
            <path d="M58,0 C58,0 58.1745807,6.04781999 65.0200386,6.04782009 C71.8654965,6.04782019 72.040077,0 72.040077,0" id="Path-10"></path>
            <path d="M72,0 C72,0 72.1745807,6.04781999 79.0200386,6.04782009 C85.8654965,6.04782019 86.040077,0 86.040077,0" id="Path-10"></path>
            <path d="M86,0 C86,0 86.1745807,6.04781999 93.0200386,6.04782009 C99.8654965,6.04782019 100.040077,0 100.040077,0" id="Path-10"></path>
            <path d="M101,0 C101,0 101.174581,6.04781999 108.020039,6.04782009 C114.865497,6.04782019 115.040077,0 115.040077,0" id="Path-10"></path>
            <path d="M115,0 C115,0 115.174581,6.04781999 122.020039,6.04782009 C128.865497,6.04782019 129.040077,0 129.040077,0" id="Path-10"></path>
            <path d="M129,0 C129,0 129.174581,6.04781999 136.020039,6.04782009 C142.865497,6.04782019 143.040077,0 143.040077,0" id="Path-10"></path>
            <path d="M144,0 C144,0 144.174581,6.04781999 151.020039,6.04782009 C157.865497,6.04782019 158.040077,0 158.040077,0" id="Path-10"></path>
            <path d="M158,0 C158,0 158.174581,6.04781999 165.020039,6.04782009 C171.865497,6.04782019 172.040077,0 172.040077,0" id="Path-10"></path>
            <path d="M172,0 C172,0 172.174581,6.04781999 179.020039,6.04782009 C185.865497,6.04782019 186.040077,0 186.040077,0" id="Path-10"></path>
            <path d="M187,0 C187,0 187.174581,6.04781999 194.020039,6.04782009 C200.865497,6.04782019 201.040077,0 201.040077,0" id="Path-10"></path>
        </g>
    </g>
</svg>