<svg width="42px" height="91px" viewBox="852 934 42 91" version="1.1" xmlns="http://www.w3.org/2000/svg" xmlns:xlink="http://www.w3.org/1999/xlink">
    <!-- Generator: Sketch 39.1 (31720) - http://www.bohemiancoding.com/sketch -->
    <desc>Created with Sketch.</desc>
    <defs></defs>
    <g id="Building-8" stroke="none" stroke-width="1" fill="none" fill-rule="evenodd" transform="translate(852.000000, 934.000000)">
        <polygon id="Rectangle-4" fill="#EF6262" points="0 48.407224 20.5752373 39.1070429 41.99282 48.407224 41.99282 90.6857143 0 90.6857143"></polygon>
        <rect id="Rectangle-2" fill="#EF6262" x="16.5236842" y="22.3428571" width="8.62105263" height="10.5142857"></rect>
        <rect id="Rectangle-2" fill="#EF6262" x="12.9315789" y="32.8571429" width="15.8052632" height="15.7714286"></rect>
        <polygon id="Rectangle" fill="#EF6262" points="18.6789474 22.3428571 20.7808189 0 22.9894737 22.3428571"></polygon>
        <path d="M24.4122885,42.0571429 C24.4122885,42.0571429 24.6686489,35.4857143 22.9894737,35.4857143 C21.3102985,35.4857143 21.5666588,42.0571429 21.5666588,42.0571429 L24.4122885,42.0571429 Z" id="Oval-69" fill="#222B30"></path>
        <path d="M22.2570254,31.5428571 C22.2570254,31.5428571 22.5133857,24.9714286 20.8342105,24.9714286 C19.7915869,24.9714286 19.4951787,27.5049404 19.4202818,29.4257773 C19.3745551,30.598503 19.4113957,31.5428571 19.4113957,31.5428571 L22.2570254,31.5428571 Z" id="Oval-69" fill="#222B30"></path>
        <path d="M20.1017622,42.0571429 C20.1017622,42.0571429 20.3581226,35.4857143 18.6789474,35.4857143 C16.9997722,35.4857143 17.2561325,42.0571429 17.2561325,42.0571429 L20.1017622,42.0571429 Z" id="Oval-69" fill="#222B30"></path>
        <path d="M12.9315789,81.2531412 C12.9315789,81.2531412 12.9315789,73.6 20.8342105,73.6 C28.7368421,73.6 28.7368421,81.2531412 28.7368421,81.2531412 L28.7368421,90.9094319 L12.9315789,90.9094319 L12.9315789,81.2531412 Z" id="Rectangle-60" fill="#222B30"></path>
    </g>
</svg>