<svg width="166px" height="82px" viewBox="606 944 166 82" version="1.1" xmlns="http://www.w3.org/2000/svg" xmlns:xlink="http://www.w3.org/1999/xlink">
    <!-- Generator: Sketch 39.1 (31720) - http://www.bohemiancoding.com/sketch -->
    <desc>Created with Sketch.</desc>
    <defs></defs>
    <g id="Building-7" stroke="none" stroke-width="1" fill="none" fill-rule="evenodd" transform="translate(607.000000, 944.000000)">
        <polygon id="Rectangle-64" fill="#EF6262" points="-3.41092928e-13 28.3970874 165 28.3970874 165 81 -3.41092928e-13 81"></polygon>
        <polygon id="Rectangle-64" fill="#EF6262" points="-3.41092928e-13 19.8367347 165 19.8367347 165 23.1428571 -3.41092928e-13 23.1428571"></polygon>
        <g id="Light-2" transform="translate(34.534884, 0.000000)">
            <rect id="Rectangle-67" fill="#EF6262" x="13.0813953" y="11.0204082" width="2.61627907" height="8.81632653"></rect>
            <rect id="Rectangle-68" fill="#EF6262" x="0" y="0" width="28.7790698" height="11.0204082"></rect>
            <ellipse id="Oval-6" fill="#222B30" cx="2.61627907" cy="2.20408163" rx="1.30813953" ry="1.10204082"></ellipse>
            <ellipse id="Oval-6" fill="#222B30" cx="6.54069767" cy="2.20408163" rx="1.30813953" ry="1.10204082"></ellipse>
            <ellipse id="Oval-6" fill="#222B30" cx="10.4651163" cy="2.20408163" rx="1.30813953" ry="1.10204082"></ellipse>
            <ellipse id="Oval-6" fill="#222B30" cx="14.3895349" cy="2.20408163" rx="1.30813953" ry="1.10204082"></ellipse>
            <ellipse id="Oval-6" fill="#222B30" cx="18.3139535" cy="2.20408163" rx="1.30813953" ry="1.10204082"></ellipse>
            <ellipse id="Oval-6" fill="#222B30" cx="22.2383721" cy="2.20408163" rx="1.30813953" ry="1.10204082"></ellipse>
            <ellipse id="Oval-6" fill="#222B30" cx="26.1627907" cy="2.20408163" rx="1.30813953" ry="1.10204082"></ellipse>
            <ellipse id="Oval-6" fill="#222B30" cx="2.61627907" cy="5.51020408" rx="1.30813953" ry="1.10204082"></ellipse>
            <ellipse id="Oval-6" fill="#222B30" cx="6.54069767" cy="5.51020408" rx="1.30813953" ry="1.10204082"></ellipse>
            <ellipse id="Oval-6" fill="#222B30" cx="10.4651163" cy="5.51020408" rx="1.30813953" ry="1.10204082"></ellipse>
            <ellipse id="Oval-6" fill="#222B30" cx="14.3895349" cy="5.51020408" rx="1.30813953" ry="1.10204082"></ellipse>
            <ellipse id="Oval-6" fill="#222B30" cx="18.3139535" cy="5.51020408" rx="1.30813953" ry="1.10204082"></ellipse>
            <ellipse id="Oval-6" fill="#222B30" cx="22.2383721" cy="5.51020408" rx="1.30813953" ry="1.10204082"></ellipse>
            <ellipse id="Oval-6" fill="#222B30" cx="26.1627907" cy="5.51020408" rx="1.30813953" ry="1.10204082"></ellipse>
            <ellipse id="Oval-6" fill="#222B30" cx="2.61627907" cy="8.81632653" rx="1.30813953" ry="1.10204082"></ellipse>
            <ellipse id="Oval-6" fill="#222B30" cx="6.54069767" cy="8.81632653" rx="1.30813953" ry="1.10204082"></ellipse>
            <ellipse id="Oval-6" fill="#222B30" cx="10.4651163" cy="8.81632653" rx="1.30813953" ry="1.10204082"></ellipse>
            <ellipse id="Oval-6" fill="#222B30" cx="14.3895349" cy="8.81632653" rx="1.30813953" ry="1.10204082"></ellipse>
            <ellipse id="Oval-6" fill="#222B30" cx="18.3139535" cy="8.81632653" rx="1.30813953" ry="1.10204082"></ellipse>
            <ellipse id="Oval-6" fill="#222B30" cx="22.2383721" cy="8.81632653" rx="1.30813953" ry="1.10204082"></ellipse>
            <ellipse id="Oval-6" fill="#222B30" cx="26.1627907" cy="8.81632653" rx="1.30813953" ry="1.10204082"></ellipse>
        </g>
        <g id="Light-2" transform="translate(67.151163, 0.000000)">
            <rect id="Rectangle-67" fill="#EF6262" x="13.0813953" y="11.0204082" width="2.61627907" height="8.81632653"></rect>
            <rect id="Rectangle-68" fill="#EF6262" x="0" y="0" width="28.7790698" height="11.0204082"></rect>
            <ellipse id="Oval-6" fill="#222B30" cx="2.61627907" cy="2.20408163" rx="1.30813953" ry="1.10204082"></ellipse>
            <ellipse id="Oval-6" fill="#222B30" cx="6.54069767" cy="2.20408163" rx="1.30813953" ry="1.10204082"></ellipse>
            <ellipse id="Oval-6" fill="#222B30" cx="10.4651163" cy="2.20408163" rx="1.30813953" ry="1.10204082"></ellipse>
            <ellipse id="Oval-6" fill="#222B30" cx="14.3895349" cy="2.20408163" rx="1.30813953" ry="1.10204082"></ellipse>
            <ellipse id="Oval-6" fill="#222B30" cx="18.3139535" cy="2.20408163" rx="1.30813953" ry="1.10204082"></ellipse>
            <ellipse id="Oval-6" fill="#222B30" cx="22.2383721" cy="2.20408163" rx="1.30813953" ry="1.10204082"></ellipse>
            <ellipse id="Oval-6" fill="#222B30" cx="26.1627907" cy="2.20408163" rx="1.30813953" ry="1.10204082"></ellipse>
            <ellipse id="Oval-6" fill="#222B30" cx="2.61627907" cy="5.51020408" rx="1.30813953" ry="1.10204082"></ellipse>
            <ellipse id="Oval-6" fill="#222B30" cx="6.54069767" cy="5.51020408" rx="1.30813953" ry="1.10204082"></ellipse>
            <ellipse id="Oval-6" fill="#222B30" cx="10.4651163" cy="5.51020408" rx="1.30813953" ry="1.10204082"></ellipse>
            <ellipse id="Oval-6" fill="#222B30" cx="14.3895349" cy="5.51020408" rx="1.30813953" ry="1.10204082"></ellipse>
            <ellipse id="Oval-6" fill="#222B30" cx="18.3139535" cy="5.51020408" rx="1.30813953" ry="1.10204082"></ellipse>
            <ellipse id="Oval-6" fill="#222B30" cx="22.2383721" cy="5.51020408" rx="1.30813953" ry="1.10204082"></ellipse>
            <ellipse id="Oval-6" fill="#222B30" cx="26.1627907" cy="5.51020408" rx="1.30813953" ry="1.10204082"></ellipse>
            <ellipse id="Oval-6" fill="#222B30" cx="2.61627907" cy="8.81632653" rx="1.30813953" ry="1.10204082"></ellipse>
            <ellipse id="Oval-6" fill="#222B30" cx="6.54069767" cy="8.81632653" rx="1.30813953" ry="1.10204082"></ellipse>
            <ellipse id="Oval-6" fill="#222B30" cx="10.4651163" cy="8.81632653" rx="1.30813953" ry="1.10204082"></ellipse>
            <ellipse id="Oval-6" fill="#222B30" cx="14.3895349" cy="8.81632653" rx="1.30813953" ry="1.10204082"></ellipse>
            <ellipse id="Oval-6" fill="#222B30" cx="18.3139535" cy="8.81632653" rx="1.30813953" ry="1.10204082"></ellipse>
            <ellipse id="Oval-6" fill="#222B30" cx="22.2383721" cy="8.81632653" rx="1.30813953" ry="1.10204082"></ellipse>
            <ellipse id="Oval-6" fill="#222B30" cx="26.1627907" cy="8.81632653" rx="1.30813953" ry="1.10204082"></ellipse>
        </g>
        <g id="Light-2" transform="translate(99.767442, 0.000000)">
            <rect id="Rectangle-67" fill="#EF6262" x="13.0813953" y="11.0204082" width="2.61627907" height="8.81632653"></rect>
            <rect id="Rectangle-68" fill="#EF6262" x="0" y="0" width="28.7790698" height="11.0204082"></rect>
            <ellipse id="Oval-6" fill="#222B30" cx="2.61627907" cy="2.20408163" rx="1.30813953" ry="1.10204082"></ellipse>
            <ellipse id="Oval-6" fill="#222B30" cx="6.54069767" cy="2.20408163" rx="1.30813953" ry="1.10204082"></ellipse>
            <ellipse id="Oval-6" fill="#222B30" cx="10.4651163" cy="2.20408163" rx="1.30813953" ry="1.10204082"></ellipse>
            <ellipse id="Oval-6" fill="#222B30" cx="14.3895349" cy="2.20408163" rx="1.30813953" ry="1.10204082"></ellipse>
            <ellipse id="Oval-6" fill="#222B30" cx="18.3139535" cy="2.20408163" rx="1.30813953" ry="1.10204082"></ellipse>
            <ellipse id="Oval-6" fill="#222B30" cx="22.2383721" cy="2.20408163" rx="1.30813953" ry="1.10204082"></ellipse>
            <ellipse id="Oval-6" fill="#222B30" cx="26.1627907" cy="2.20408163" rx="1.30813953" ry="1.10204082"></ellipse>
            <ellipse id="Oval-6" fill="#222B30" cx="2.61627907" cy="5.51020408" rx="1.30813953" ry="1.10204082"></ellipse>
            <ellipse id="Oval-6" fill="#222B30" cx="6.54069767" cy="5.51020408" rx="1.30813953" ry="1.10204082"></ellipse>
            <ellipse id="Oval-6" fill="#222B30" cx="10.4651163" cy="5.51020408" rx="1.30813953" ry="1.10204082"></ellipse>
            <ellipse id="Oval-6" fill="#222B30" cx="14.3895349" cy="5.51020408" rx="1.30813953" ry="1.10204082"></ellipse>
            <ellipse id="Oval-6" fill="#222B30" cx="18.3139535" cy="5.51020408" rx="1.30813953" ry="1.10204082"></ellipse>
            <ellipse id="Oval-6" fill="#222B30" cx="22.2383721" cy="5.51020408" rx="1.30813953" ry="1.10204082"></ellipse>
            <ellipse id="Oval-6" fill="#222B30" cx="26.1627907" cy="5.51020408" rx="1.30813953" ry="1.10204082"></ellipse>
            <ellipse id="Oval-6" fill="#222B30" cx="2.61627907" cy="8.81632653" rx="1.30813953" ry="1.10204082"></ellipse>
            <ellipse id="Oval-6" fill="#222B30" cx="6.54069767" cy="8.81632653" rx="1.30813953" ry="1.10204082"></ellipse>
            <ellipse id="Oval-6" fill="#222B30" cx="10.4651163" cy="8.81632653" rx="1.30813953" ry="1.10204082"></ellipse>
            <ellipse id="Oval-6" fill="#222B30" cx="14.3895349" cy="8.81632653" rx="1.30813953" ry="1.10204082"></ellipse>
            <ellipse id="Oval-6" fill="#222B30" cx="18.3139535" cy="8.81632653" rx="1.30813953" ry="1.10204082"></ellipse>
            <ellipse id="Oval-6" fill="#222B30" cx="22.2383721" cy="8.81632653" rx="1.30813953" ry="1.10204082"></ellipse>
            <ellipse id="Oval-6" fill="#222B30" cx="26.1627907" cy="8.81632653" rx="1.30813953" ry="1.10204082"></ellipse>
        </g>
        <g id="Light-2" transform="translate(132.383721, 0.000000)">
            <rect id="Rectangle-67" fill="#EF6262" x="13.0813953" y="11.0204082" width="2.61627907" height="8.81632653"></rect>
            <rect id="Rectangle-68" fill="#EF6262" x="0" y="0" width="28.7790698" height="11.0204082"></rect>
            <ellipse id="Oval-6" fill="#222B30" cx="2.61627907" cy="2.20408163" rx="1.30813953" ry="1.10204082"></ellipse>
            <ellipse id="Oval-6" fill="#222B30" cx="6.54069767" cy="2.20408163" rx="1.30813953" ry="1.10204082"></ellipse>
            <ellipse id="Oval-6" fill="#222B30" cx="10.4651163" cy="2.20408163" rx="1.30813953" ry="1.10204082"></ellipse>
            <ellipse id="Oval-6" fill="#222B30" cx="14.3895349" cy="2.20408163" rx="1.30813953" ry="1.10204082"></ellipse>
            <ellipse id="Oval-6" fill="#222B30" cx="18.3139535" cy="2.20408163" rx="1.30813953" ry="1.10204082"></ellipse>
            <ellipse id="Oval-6" fill="#222B30" cx="22.2383721" cy="2.20408163" rx="1.30813953" ry="1.10204082"></ellipse>
            <ellipse id="Oval-6" fill="#222B30" cx="26.1627907" cy="2.20408163" rx="1.30813953" ry="1.10204082"></ellipse>
            <ellipse id="Oval-6" fill="#222B30" cx="2.61627907" cy="5.51020408" rx="1.30813953" ry="1.10204082"></ellipse>
            <ellipse id="Oval-6" fill="#222B30" cx="6.54069767" cy="5.51020408" rx="1.30813953" ry="1.10204082"></ellipse>
            <ellipse id="Oval-6" fill="#222B30" cx="10.4651163" cy="5.51020408" rx="1.30813953" ry="1.10204082"></ellipse>
            <ellipse id="Oval-6" fill="#222B30" cx="14.3895349" cy="5.51020408" rx="1.30813953" ry="1.10204082"></ellipse>
            <ellipse id="Oval-6" fill="#222B30" cx="18.3139535" cy="5.51020408" rx="1.30813953" ry="1.10204082"></ellipse>
            <ellipse id="Oval-6" fill="#222B30" cx="22.2383721" cy="5.51020408" rx="1.30813953" ry="1.10204082"></ellipse>
            <ellipse id="Oval-6" fill="#222B30" cx="26.1627907" cy="5.51020408" rx="1.30813953" ry="1.10204082"></ellipse>
            <ellipse id="Oval-6" fill="#222B30" cx="2.61627907" cy="8.81632653" rx="1.30813953" ry="1.10204082"></ellipse>
            <ellipse id="Oval-6" fill="#222B30" cx="6.54069767" cy="8.81632653" rx="1.30813953" ry="1.10204082"></ellipse>
            <ellipse id="Oval-6" fill="#222B30" cx="10.4651163" cy="8.81632653" rx="1.30813953" ry="1.10204082"></ellipse>
            <ellipse id="Oval-6" fill="#222B30" cx="14.3895349" cy="8.81632653" rx="1.30813953" ry="1.10204082"></ellipse>
            <ellipse id="Oval-6" fill="#222B30" cx="18.3139535" cy="8.81632653" rx="1.30813953" ry="1.10204082"></ellipse>
            <ellipse id="Oval-6" fill="#222B30" cx="22.2383721" cy="8.81632653" rx="1.30813953" ry="1.10204082"></ellipse>
            <ellipse id="Oval-6" fill="#222B30" cx="26.1627907" cy="8.81632653" rx="1.30813953" ry="1.10204082"></ellipse>
        </g>
        <g id="Light-1" transform="translate(1.918605, 0.000000)">
            <rect id="Rectangle-67" fill="#EF6262" x="13.0813953" y="11.0204082" width="2.61627907" height="8.81632653"></rect>
            <rect id="Rectangle-68" fill="#EF6262" x="0" y="0" width="28.7790698" height="11.0204082"></rect>
            <ellipse id="Oval-6" fill="#222B30" cx="2.61627907" cy="2.20408163" rx="1.30813953" ry="1.10204082"></ellipse>
            <ellipse id="Oval-6" fill="#222B30" cx="6.54069767" cy="2.20408163" rx="1.30813953" ry="1.10204082"></ellipse>
            <ellipse id="Oval-6" fill="#222B30" cx="10.4651163" cy="2.20408163" rx="1.30813953" ry="1.10204082"></ellipse>
            <ellipse id="Oval-6" fill="#222B30" cx="14.3895349" cy="2.20408163" rx="1.30813953" ry="1.10204082"></ellipse>
            <ellipse id="Oval-6" fill="#222B30" cx="18.3139535" cy="2.20408163" rx="1.30813953" ry="1.10204082"></ellipse>
            <ellipse id="Oval-6" fill="#222B30" cx="22.2383721" cy="2.20408163" rx="1.30813953" ry="1.10204082"></ellipse>
            <ellipse id="Oval-6" fill="#222B30" cx="26.1627907" cy="2.20408163" rx="1.30813953" ry="1.10204082"></ellipse>
            <ellipse id="Oval-6" fill="#222B30" cx="2.61627907" cy="5.51020408" rx="1.30813953" ry="1.10204082"></ellipse>
            <ellipse id="Oval-6" fill="#222B30" cx="6.54069767" cy="5.51020408" rx="1.30813953" ry="1.10204082"></ellipse>
            <ellipse id="Oval-6" fill="#222B30" cx="10.4651163" cy="5.51020408" rx="1.30813953" ry="1.10204082"></ellipse>
            <ellipse id="Oval-6" fill="#222B30" cx="14.3895349" cy="5.51020408" rx="1.30813953" ry="1.10204082"></ellipse>
            <ellipse id="Oval-6" fill="#222B30" cx="18.3139535" cy="5.51020408" rx="1.30813953" ry="1.10204082"></ellipse>
            <ellipse id="Oval-6" fill="#222B30" cx="22.2383721" cy="5.51020408" rx="1.30813953" ry="1.10204082"></ellipse>
            <ellipse id="Oval-6" fill="#222B30" cx="26.1627907" cy="5.51020408" rx="1.30813953" ry="1.10204082"></ellipse>
            <ellipse id="Oval-6" fill="#222B30" cx="2.61627907" cy="8.81632653" rx="1.30813953" ry="1.10204082"></ellipse>
            <ellipse id="Oval-6" fill="#222B30" cx="6.54069767" cy="8.81632653" rx="1.30813953" ry="1.10204082"></ellipse>
            <ellipse id="Oval-6" fill="#222B30" cx="10.4651163" cy="8.81632653" rx="1.30813953" ry="1.10204082"></ellipse>
            <ellipse id="Oval-6" fill="#222B30" cx="14.3895349" cy="8.81632653" rx="1.30813953" ry="1.10204082"></ellipse>
            <ellipse id="Oval-6" fill="#222B30" cx="18.3139535" cy="8.81632653" rx="1.30813953" ry="1.10204082"></ellipse>
            <ellipse id="Oval-6" fill="#222B30" cx="22.2383721" cy="8.81632653" rx="1.30813953" ry="1.10204082"></ellipse>
            <ellipse id="Oval-6" fill="#222B30" cx="26.1627907" cy="8.81632653" rx="1.30813953" ry="1.10204082"></ellipse>
        </g>
        <g id="Windows" transform="translate(7.674419, 33.061224)">
            <path d="M11.5116279,23.1428571 C11.5116279,23.1428571 11.5116279,14.877551 5.75581395,14.877551 C0,14.877551 0,23.1428571 0,23.1428571 L11.5116279,23.1428571 Z" id="Oval-69" fill="#222B30"></path>
            <path d="M26.8604651,23.1428571 C26.8604651,23.1428571 26.8604651,14.877551 21.1046512,14.877551 C15.3488372,14.877551 15.3488372,23.1428571 15.3488372,23.1428571 L26.8604651,23.1428571 Z" id="Oval-69" fill="#222B30"></path>
            <path d="M42.2093023,23.1428571 C42.2093023,23.1428571 42.2093023,14.877551 36.4534884,14.877551 C30.6976744,14.877551 30.6976744,23.1428571 30.6976744,23.1428571 L42.2093023,23.1428571 Z" id="Oval-69" fill="#222B30"></path>
            <path d="M57.5581395,23.1428571 C57.5581395,23.1428571 57.5581395,14.877551 51.8023256,14.877551 C46.0465116,14.877551 46.0465116,23.1428571 46.0465116,23.1428571 L57.5581395,23.1428571 Z" id="Oval-69" fill="#222B30"></path>
            <path d="M72.9069767,23.1428571 C72.9069767,23.1428571 72.9069767,14.877551 67.1511628,14.877551 C61.3953488,14.877551 61.3953488,23.1428571 61.3953488,23.1428571 L72.9069767,23.1428571 Z" id="Oval-69" fill="#222B30"></path>
            <path d="M88.255814,23.1428571 C88.255814,23.1428571 88.255814,14.877551 82.5,14.877551 C76.744186,14.877551 76.744186,23.1428571 76.744186,23.1428571 L88.255814,23.1428571 Z" id="Oval-69" fill="#222B30"></path>
            <path d="M103.604651,23.1428571 C103.604651,23.1428571 103.604651,14.877551 97.8488372,14.877551 C92.0930233,14.877551 92.0930233,23.1428571 92.0930233,23.1428571 L103.604651,23.1428571 Z" id="Oval-69" fill="#222B30"></path>
            <path d="M118.953488,23.1428571 C118.953488,23.1428571 118.953488,14.877551 113.197674,14.877551 C107.44186,14.877551 107.44186,23.1428571 107.44186,23.1428571 L118.953488,23.1428571 Z" id="Oval-69" fill="#222B30"></path>
            <path d="M134.302326,23.1428571 C134.302326,23.1428571 134.302326,14.877551 128.546512,14.877551 C122.790698,14.877551 122.790698,23.1428571 122.790698,23.1428571 L134.302326,23.1428571 Z" id="Oval-69" fill="#222B30"></path>
            <path d="M149.651163,23.1428571 C149.651163,23.1428571 149.651163,14.877551 143.895349,14.877551 C138.139535,14.877551 138.139535,23.1428571 138.139535,23.1428571 L149.651163,23.1428571 Z" id="Oval-69" fill="#222B30"></path>
            <path d="M11.5116279,38.0204082 C11.5116279,38.0204082 11.5116279,29.755102 5.75581395,29.755102 C0,29.755102 0,38.0204082 0,38.0204082 L11.5116279,38.0204082 Z" id="Oval-69" fill="#222B30"></path>
            <path d="M26.8604651,38.0204082 C26.8604651,38.0204082 26.8604651,29.755102 21.1046512,29.755102 C15.3488372,29.755102 15.3488372,38.0204082 15.3488372,38.0204082 L26.8604651,38.0204082 Z" id="Oval-69" fill="#222B30"></path>
            <path d="M42.2093023,38.0204082 C42.2093023,38.0204082 42.2093023,29.755102 36.4534884,29.755102 C30.6976744,29.755102 30.6976744,38.0204082 30.6976744,38.0204082 L42.2093023,38.0204082 Z" id="Oval-69" fill="#222B30"></path>
            <path d="M57.5581395,38.0204082 C57.5581395,38.0204082 57.5581395,29.755102 51.8023256,29.755102 C46.0465116,29.755102 46.0465116,38.0204082 46.0465116,38.0204082 L57.5581395,38.0204082 Z" id="Oval-69" fill="#222B30"></path>
            <path d="M72.9069767,38.0204082 C72.9069767,38.0204082 72.9069767,29.755102 67.1511628,29.755102 C61.3953488,29.755102 61.3953488,38.0204082 61.3953488,38.0204082 L72.9069767,38.0204082 Z" id="Oval-69" fill="#222B30"></path>
            <path d="M88.255814,38.0204082 C88.255814,38.0204082 88.255814,29.755102 82.5,29.755102 C76.744186,29.755102 76.744186,38.0204082 76.744186,38.0204082 L88.255814,38.0204082 Z" id="Oval-69" fill="#222B30"></path>
            <path d="M103.604651,38.0204082 C103.604651,38.0204082 103.604651,29.755102 97.8488372,29.755102 C92.0930233,29.755102 92.0930233,38.0204082 92.0930233,38.0204082 L103.604651,38.0204082 Z" id="Oval-69" fill="#222B30"></path>
            <path d="M118.953488,38.0204082 C118.953488,38.0204082 118.953488,29.755102 113.197674,29.755102 C107.44186,29.755102 107.44186,38.0204082 107.44186,38.0204082 L118.953488,38.0204082 Z" id="Oval-69" fill="#222B30"></path>
            <path d="M134.302326,38.0204082 C134.302326,38.0204082 134.302326,29.755102 128.546512,29.755102 C122.790698,29.755102 122.790698,38.0204082 122.790698,38.0204082 L134.302326,38.0204082 Z" id="Oval-69" fill="#222B30"></path>
            <path d="M149.651163,38.0204082 C149.651163,38.0204082 149.651163,29.755102 143.895349,29.755102 C138.139535,29.755102 138.139535,38.0204082 138.139535,38.0204082 L149.651163,38.0204082 Z" id="Oval-69" fill="#222B30"></path>
            <path d="M0,41.3265306 L149.276509,41.3265306" id="Path-24" stroke="#222B30"></path>
            <path d="M11.5116279,8.26530612 C11.5116279,8.26530612 11.5116279,-5.06104056e-16 5.75581395,0 C0,5.06104034e-16 0,8.26530612 0,8.26530612 L11.5116279,8.26530612 Z" id="Oval-69" fill="#222B30"></path>
            <path d="M26.8604651,8.26530612 C26.8604651,8.26530612 26.8604651,-5.06104056e-16 21.1046512,0 C15.3488372,5.06104034e-16 15.3488372,8.26530612 15.3488372,8.26530612 L26.8604651,8.26530612 Z" id="Oval-69" fill="#222B30"></path>
            <path d="M42.2093023,8.26530612 C42.2093023,8.26530612 42.2093023,-5.06104056e-16 36.4534884,0 C30.6976744,5.06104034e-16 30.6976744,8.26530612 30.6976744,8.26530612 L42.2093023,8.26530612 Z" id="Oval-69" fill="#222B30"></path>
            <path d="M57.5581395,8.26530612 C57.5581395,8.26530612 57.5581395,-5.06104056e-16 51.8023256,0 C46.0465116,5.06104034e-16 46.0465116,8.26530612 46.0465116,8.26530612 L57.5581395,8.26530612 Z" id="Oval-69" fill="#222B30"></path>
            <path d="M72.9069767,8.26530612 C72.9069767,8.26530612 72.9069767,-5.06104056e-16 67.1511628,0 C61.3953488,5.06104034e-16 61.3953488,8.26530612 61.3953488,8.26530612 L72.9069767,8.26530612 Z" id="Oval-69" fill="#222B30"></path>
            <path d="M88.255814,8.26530612 C88.255814,8.26530612 88.255814,-5.06104056e-16 82.5,0 C76.744186,5.06104034e-16 76.744186,8.26530612 76.744186,8.26530612 L88.255814,8.26530612 Z" id="Oval-69" fill="#222B30"></path>
            <path d="M103.604651,8.26530612 C103.604651,8.26530612 103.604651,-5.06104056e-16 97.8488372,0 C92.0930233,5.06104034e-16 92.0930233,8.26530612 92.0930233,8.26530612 L103.604651,8.26530612 Z" id="Oval-69" fill="#222B30"></path>
            <path d="M118.953488,8.26530612 C118.953488,8.26530612 118.953488,-5.06104056e-16 113.197674,0 C107.44186,5.06104034e-16 107.44186,8.26530612 107.44186,8.26530612 L118.953488,8.26530612 Z" id="Oval-69" fill="#222B30"></path>
            <path d="M134.302326,8.26530612 C134.302326,8.26530612 134.302326,-5.06104056e-16 128.546512,0 C122.790698,5.06104034e-16 122.790698,8.26530612 122.790698,8.26530612 L134.302326,8.26530612 Z" id="Oval-69" fill="#222B30"></path>
            <path d="M149.651163,8.26530612 C149.651163,8.26530612 149.651163,-5.06104056e-16 143.895349,0 C138.139535,5.06104034e-16 138.139535,8.26530612 138.139535,8.26530612 L149.651163,8.26530612 Z" id="Oval-69" fill="#222B30"></path>
            <path d="M0,11.5714286 L149.276509,11.5714286" id="Path-24" stroke="#222B30"></path>
            <path d="M0,26.4489796 L149.276509,26.4489796" id="Path-24" stroke="#222B30"></path>
        </g>
    </g>
</svg>