<svg width="68px" height="151px" viewBox="778 874 68 151" version="1.1" xmlns="http://www.w3.org/2000/svg" xmlns:xlink="http://www.w3.org/1999/xlink">
    <!-- Generator: Sketch 39.1 (31720) - http://www.bohemiancoding.com/sketch -->
    <desc>Created with Sketch.</desc>
    <defs></defs>
    <g id="Building-6" stroke="none" stroke-width="1" fill="none" fill-rule="evenodd" transform="translate(778.000000, 874.000000)">
        <rect id="Rectangle-54" fill="#EF6262" x="0" y="44" width="68" height="107"></rect>
        <path d="M62.3929519,40 C62.3929519,40 58.8073445,4 33.696476,4 C8.58560743,4 5,40 5,40 L62.3929519,40 Z" id="Oval-4" fill="#EF6262"></path>
        <path d="M59.2807894,37.1796844 C59.2807894,37.1796844 54.6978965,6.75685983 33.7232962,6.75685983 C12.748696,6.75685983 8.16580302,37.1796844 8.16580302,37.1796844 L59.2807894,37.1796844 Z" id="Oval-4" fill="#222B30"></path>
        <rect id="Rectangle-55" fill="#EF6262" x="23" y="7" width="4" height="33"></rect>
        <rect id="Rectangle-55" fill="#EF6262" x="41" y="8" width="4" height="30.3466602"></rect>
        <polygon id="Rectangle-55" fill="#EF6262" points="15 14 19 12.3898176 19 40 15 40"></polygon>
        <rect id="Rectangle-55" fill="#EF6262" x="32" y="0" width="4" height="40"></rect>
        <polygon id="Rectangle-55" fill="#EF6262" points="49 13.6921514 53 15 53 39 49 39"></polygon>
        <rect id="Rectangle-60" fill="#222B30" x="32" y="53" width="36" height="10"></rect>
        <rect id="Rectangle-60" fill="#222B30" x="32" y="72" width="36" height="10"></rect>
        <rect id="Rectangle-60" fill="#222B30" x="32" y="91" width="36" height="10"></rect>
        <rect id="Rectangle-60" fill="#222B30" x="32" y="91" width="36" height="10"></rect>
    </g>
</svg>